<?xml version="1.0" standalone="no"?>
<!DOCTYPE svg PUBLIC "-//W3C//DTD SVG 20010904//EN"
 "http://www.w3.org/TR/2001/REC-SVG-20010904/DTD/svg10.dtd">
<svg version="1.0" xmlns="http://www.w3.org/2000/svg"
 width="2000.000000pt" height="2250.000000pt" viewBox="0 0 2000.000000 2250.000000"
 preserveAspectRatio="xMidYMid meet">

<g transform="translate(0.000000,2250.000000) scale(0.100000,-0.100000)"
fill="#000000" stroke="none">
<path d="M9457 21335 c-606 -226 -906 -354 -1167 -500 -124 -69 -281 -170
-363 -232 -33 -24 -62 -42 -65 -39 -3 4 3 76 12 162 18 159 16 211 -11 253
-13 21 -21 23 -68 19 -69 -6 -102 -32 -345 -263 -339 -324 -445 -384 -610
-344 -84 21 -264 13 -374 -15 -364 -94 -711 -425 -831 -793 l-17 -51 -61 -8
c-99 -12 -280 -7 -441 11 -97 11 -191 16 -270 13 -187 -7 -218 -24 -492 -259
-297 -254 -548 -493 -1100 -1044 -633 -632 -586 -571 -694 -891 -100 -296
-134 -351 -372 -612 -117 -128 -228 -235 -503 -487 -599 -550 -801 -786 -998
-1173 -249 -487 -362 -925 -532 -2067 -67 -448 -100 -651 -134 -830 l-19 -100
117 -225 c387 -740 604 -1332 720 -1966 41 -221 45 -254 32 -300 -25 -92 -125
-124 -244 -78 -16 6 -17 -13 -17 -225 0 -259 12 -394 45 -528 31 -121 155
-416 548 -1298 511 -1148 692 -1595 870 -2146 l50 -157 48 -5 c90 -11 185 -79
250 -180 53 -82 73 -140 103 -302 153 -835 573 -1379 1175 -1527 77 -19 119
-22 401 -23 240 -2 336 -6 402 -19 152 -28 288 -90 398 -180 207 -171 307
-228 540 -308 168 -58 298 -80 499 -84 l185 -5 255 -133 c141 -73 355 -184
476 -246 385 -198 686 -369 885 -504 64 -43 82 -51 120 -50 56 1 103 25 127
64 9 16 20 30 24 30 19 0 29 -63 29 -185 l0 -135 28 5 c15 3 119 16 232 30
1044 126 1737 134 2345 30 146 -25 388 -83 463 -109 31 -11 49 -13 62 -6 11 6
59 20 107 32 131 33 332 30 465 -5 176 -47 353 -126 584 -264 l91 -54 119 -6
c112 -5 120 -4 142 16 27 26 29 68 6 136 -17 47 -17 48 7 66 43 33 211 96 339
128 163 40 459 101 494 101 64 0 129 -55 251 -214 33 -43 81 -93 106 -112 41
-30 115 -64 140 -64 5 0 9 71 9 158 0 234 25 302 129 351 55 25 60 26 245 24
105 -1 200 -4 212 -7 l23 -6 -2 177 c-2 217 3 232 118 343 42 41 166 172 275
290 214 234 341 360 435 431 65 50 184 129 195 129 3 0 75 -76 160 -169 85
-93 158 -167 162 -165 13 8 9 94 -7 161 -8 34 -32 99 -53 145 -32 68 -57 102
-139 190 -111 117 -132 155 -105 188 16 20 148 69 341 125 135 40 251 29 337
-33 100 -72 98 -73 53 14 -49 95 -49 133 3 178 82 71 187 96 388 94 108 -2
133 1 182 20 127 51 217 221 218 414 l0 57 249 300 c351 422 550 693 784 1068
205 328 478 847 652 1238 95 215 326 787 320 793 -11 11 -229 -172 -356 -298
-159 -159 -235 -251 -360 -440 -95 -145 -120 -175 -171 -201 -61 -31 -134 -21
-190 28 -9 8 -18 11 -21 6 -3 -4 -33 -98 -67 -208 -71 -228 -82 -254 -75 -175
14 147 24 294 21 298 -2 2 -116 -84 -253 -190 -1277 -997 -2356 -1778 -3297
-2387 -243 -158 -306 -193 -395 -217 -52 -15 -69 -15 -116 -5 -68 15 -140 77
-181 156 -16 30 -32 55 -35 55 -3 0 -53 -41 -110 -91 -132 -116 -182 -149
-229 -149 -56 0 -83 35 -88 115 -2 35 1 78 6 95 l11 30 -42 -7 c-49 -8 -42 -8
-173 2 -136 10 -149 3 -212 -125 -28 -56 -54 -96 -64 -98 -12 -2 -29 18 -58
71 -39 71 -65 97 -80 80 -4 -4 -15 -60 -24 -123 -9 -63 -22 -144 -29 -180
l-11 -65 -7 57 c-12 108 -57 136 -124 76 -40 -34 -95 -122 -95 -150 0 -10 -3
-18 -7 -18 -5 0 -44 55 -88 122 -44 68 -117 160 -162 207 l-82 86 29 -71 c53
-128 63 -258 22 -272 -7 -2 -33 18 -58 44 l-44 49 0 -30 c0 -16 -5 -80 -11
-142 l-12 -113 -53 -30 c-29 -16 -97 -74 -151 -128 -54 -54 -112 -106 -130
-115 -21 -11 -90 -22 -210 -32 -361 -31 -688 -83 -966 -154 l-154 -40 -114 30
c-689 176 -1496 308 -2229 364 -631 48 -974 141 -1481 402 -154 78 -389 213
-389 223 0 3 23 14 52 24 73 26 159 113 183 185 12 36 15 68 11 98 -9 65 -16
69 -42 26 -46 -77 -129 -114 -361 -159 l-142 -27 -233 229 c-129 126 -425 407
-658 624 -783 728 -1023 953 -1305 1226 -478 462 -1048 1071 -1187 1269 -127
180 -230 396 -448 940 -84 209 -179 436 -211 504 l-60 125 -30 -37 c-101 -122
-205 -71 -285 138 -29 79 -28 128 5 194 44 85 134 99 211 34 17 -14 32 -24 34
-22 2 2 -43 328 -100 724 -57 396 -103 749 -104 785 0 100 32 196 140 420 65
135 105 229 115 275 8 39 74 607 145 1264 72 656 140 1244 150 1306 178 1024
604 1891 1343 2732 278 317 576 614 1102 1098 137 127 315 291 395 365 238
222 330 289 655 475 94 54 358 210 588 347 580 345 787 463 1042 594 747 383
1313 561 2076 651 115 14 242 17 629 18 267 1 509 5 539 10 174 24 283 110
327 257 16 53 19 96 19 280 0 119 -3 219 -6 222 -3 4 -19 2 -34 -4 -39 -15
-136 -15 -182 0 -54 18 -134 71 -237 157 -48 41 -112 90 -142 110 -53 35 -165
82 -214 89 -15 2 -182 -55 -413 -141z m-7779 -12899 c48 -53 76 -105 172 -331
82 -191 130 -291 170 -350 44 -67 44 -66 13 -54 -112 42 -223 130 -257 203
-10 21 -24 84 -31 140 -15 117 -46 206 -115 328 -28 49 -50 92 -50 98 0 5 13
10 29 10 21 0 39 -12 69 -44z m-280 7 c13 -12 41 -87 80 -218 34 -109 60 -201
58 -202 -3 -3 -214 254 -255 308 -27 37 33 121 90 128 4 1 16 -7 27 -16z"/>
<path d="M12945 20821 l-250 -6 -53 -29 c-67 -37 -127 -102 -159 -172 -13 -30
-26 -54 -28 -54 -1 0 -27 11 -56 24 -86 39 -185 48 -398 35 -260 -15 -344 -42
-437 -141 -167 -178 -143 -426 59 -632 294 -299 734 -472 1289 -507 l169 -10
142 -81 c708 -403 1277 -780 2519 -1671 760 -545 976 -697 1023 -718 27 -13
64 -19 113 -19 96 0 188 31 359 121 72 38 141 69 152 69 21 0 21 -3 15 -124
-12 -221 27 -452 122 -713 86 -238 177 -458 218 -527 56 -96 180 -217 311
-306 172 -116 250 -199 324 -347 106 -213 113 -516 17 -817 l-25 -79 90 -177
c233 -464 516 -833 752 -984 77 -49 91 -78 92 -196 2 -114 18 -171 61 -216 35
-38 75 -44 122 -20 29 15 88 75 116 116 l16 24 0 -24 c0 -14 -11 -117 -25
-230 -75 -619 -82 -907 -29 -1177 9 -46 19 -81 22 -78 3 2 11 78 18 167 61
747 177 1360 345 1826 22 63 39 116 36 118 -2 3 -16 0 -31 -5 -44 -17 -112
-89 -162 -169 -72 -118 -120 -162 -177 -162 l-24 0 -6 373 c-8 502 -27 725
-142 1627 -35 278 -69 550 -76 605 l-12 100 -1020 1633 c-1131 1811 -1063
1710 -1366 2012 -584 581 -1333 1029 -2212 1324 -338 113 -561 169 -810 202
-133 18 -617 25 -1004 15z"/>
<path d="M9225 16863 c-685 -26 -1161 -64 -1715 -134 -839 -106 -1643 -280
-2356 -510 -255 -82 -361 -146 -585 -352 -219 -202 -311 -342 -317 -488 -4
-75 -4 -76 29 -104 33 -27 36 -28 124 -22 105 7 133 15 485 137 1469 509 3013
827 4540 935 480 33 670 39 1265 39 717 0 1091 -18 1660 -80 456 -49 1023
-147 1278 -220 576 -164 959 -433 1148 -806 114 -225 156 -441 146 -742 -6
-191 -26 -319 -68 -448 -184 -564 -612 -1104 -1229 -1550 -952 -687 -2560
-1230 -4044 -1364 -118 -11 -194 -14 -202 -8 -8 5 -151 254 -319 553 l-304
545 36 65 c467 848 1056 1764 1818 2831 132 185 137 193 159 249 44 113 -48
171 -272 171 -362 0 -673 -111 -873 -310 -80 -79 -88 -92 -432 -685 -162 -279
-460 -808 -706 -1252 -96 -172 -176 -313 -180 -313 -4 0 -24 22 -44 49 -52 67
-181 190 -253 238 -146 99 -278 143 -450 150 -143 7 -245 -11 -372 -62 -231
-93 -475 -332 -582 -568 -112 -248 -126 -542 -37 -802 101 -295 347 -548 735
-756 53 -29 99 -54 101 -55 2 -2 -53 -124 -122 -271 -937 -1997 -1463 -3447
-1594 -4396 -23 -171 -24 -487 0 -580 44 -174 132 -260 267 -261 81 -1 125 22
160 85 l25 44 0 320 c1 307 2 326 28 460 109 557 372 1287 809 2245 328 719
1047 2147 1079 2144 8 -1 115 -22 238 -48 123 -25 287 -53 363 -63 l140 -17
51 -80 c554 -868 1372 -1948 2202 -2906 297 -342 771 -832 1065 -1101 684
-624 1233 -974 1725 -1101 125 -32 137 -33 315 -33 172 1 191 3 273 28 205 63
359 173 492 352 125 167 191 343 209 556 9 101 -10 361 -33 477 -40 190 -123
309 -232 331 -127 25 -199 -34 -199 -164 0 -22 12 -89 26 -150 64 -277 81
-470 53 -621 -46 -254 -261 -374 -570 -319 -306 54 -700 277 -1154 655 -725
604 -1890 1883 -2746 3015 -240 317 -572 793 -687 985 l-21 35 332 1 c335 1
518 11 937 55 802 83 1543 262 2201 532 1096 451 1857 1036 2304 1772 170 280
308 620 371 917 35 168 45 466 20 638 -59 404 -224 726 -514 1001 -397 378
-965 625 -1842 803 -892 180 -1798 286 -2780 326 -214 9 -1179 11 -1375 3z
m-1542 -4205 c33 -16 86 -54 124 -90 68 -66 163 -199 163 -230 0 -20 -436
-898 -447 -898 -15 0 -117 87 -186 159 -165 173 -240 380 -223 620 18 254 97
392 259 452 81 30 232 23 310 -13z m819 -1315 c70 -120 123 -219 119 -221 -9
-3 -367 52 -428 66 l-31 7 100 183 c55 100 103 182 107 182 3 0 63 -98 133
-217z"/>
</g>
</svg>
